<?xml version="1.0" encoding="UTF-8" standalone="no"?>
<!-- Generator: Adobe Illustrator 26.5.0, SVG Export Plug-In . SVG Version: 6.00 Build 0)  -->

<svg
   version="1.1"
   id="_100inSpace_Identity"
   x="0px"
   y="0px"
   viewBox="0 0 3056.3 648"
   style="enable-background:new 0 0 3056.3 648;"
   xml:space="preserve"
   sodipodi:docname="100inSpace_Logotype.svg"
   inkscape:version="1.2.1 (9c6d41e4, 2022-07-14)"
   xmlns:inkscape="http://www.inkscape.org/namespaces/inkscape"
   xmlns:sodipodi="http://sodipodi.sourceforge.net/DTD/sodipodi-0.dtd"
   xmlns="http://www.w3.org/2000/svg"
   xmlns:svg="http://www.w3.org/2000/svg"><defs
   id="defs32" /><sodipodi:namedview
   id="namedview30"
   pagecolor="#ffffff"
   bordercolor="#000000"
   borderopacity="0.25"
   inkscape:showpageshadow="2"
   inkscape:pageopacity="0.0"
   inkscape:pagecheckerboard="0"
   inkscape:deskcolor="#d1d1d1"
   showgrid="false"
   inkscape:zoom="0.091049383"
   inkscape:cx="2317.4237"
   inkscape:cy="-142.77966"
   inkscape:window-width="1309"
   inkscape:window-height="456"
   inkscape:window-x="0"
   inkscape:window-y="25"
   inkscape:window-maximized="0"
   inkscape:current-layer="_100inSpace_Identity" />
<style
   type="text/css"
   id="style2">
	.st0{enable-background:new    ;}
	.st1{fill:#FFFFFF;}
</style>

<g
   class="st0"
   id="g27"
   style="fill:#ffffff"
   transform="matrix(1.3382308,0,0,1.3382308,-1005.9171,-109.80663)">
	<path
   class="st1"
   d="M 826.4,349.2 V 240 c 0,-7.1 -1.7,-10.6 -5,-10.6 -3.3,0 -9.5,1.8 -18.6,5.3 l -13.6,5 c -2,0 -3,-0.5 -3,-1.7 0,-1.1 0.8,-2.2 2.3,-3.3 7.1,-4.6 16.3,-10.6 27.6,-17.9 11.3,-7.3 20.5,-13.4 27.5,-18.3 4,-2.7 6.6,-4 8,-4 1.8,0 2.7,2.3 2.7,7 l -0.3,4.6 c 0,2.9 -0.1,6.9 -0.2,11.9 -0.1,5.1 -0.2,11.1 -0.3,17.9 -0.1,6.9 -0.2,14.7 -0.3,23.6 -0.1,8.9 -0.2,17.9 -0.3,27.2 -0.1,9.3 -0.2,19.4 -0.3,30.4 -0.1,11 -0.2,21.6 -0.2,32 0,35.4 0.5,61.2 1.7,77.3 0.4,5.5 1.6,9.6 3.5,12.3 1.9,2.7 5.4,4.2 10.5,4.6 3.1,0.2 6.1,0.6 9,1 3.5,0.4 5.3,1.6 5.3,3.3 0,1.5 -1.9,2.3 -5.6,2.3 -7.3,0 -13.9,-0.1 -19.9,-0.2 -6,-0.1 -10.4,-0.3 -13.3,-0.5 l -4.6,-0.3 h -6 c -4,0.2 -9.2,0.4 -15.8,0.7 -6.5,0.2 -12.9,0.3 -19.1,0.3 -3.8,0 -5.6,-0.8 -5.6,-2.3 0,-1.8 1.5,-2.7 4.6,-2.7 1.1,0 5.3,-0.3 12.6,-1 6,-0.4 10,-2.1 12.1,-5 2.1,-2.9 3.4,-7.7 3.8,-14.6 0.5,-9.5 0.8,-34.6 0.8,-75.1 z"
   id="path5"
   style="fill:#ffffff" />
	<path
   class="st1"
   d="m 1098.9,317 c 0,39.8 -7.6,72.7 -22.7,98.7 -15.2,26 -36,39 -62.6,39 -16.8,0 -31.4,-6.2 -43.8,-18.6 -12.4,-12.4 -21.5,-27.7 -27.2,-45.8 -5.8,-18.1 -8.6,-37.5 -8.6,-58.1 0,-41.2 7.5,-74.4 22.6,-99.7 15,-25.3 35.8,-38 62.4,-38 14.6,0 27.4,4.3 38.5,12.8 11.1,8.5 19.4,19.4 25.1,32.5 5.6,13.2 9.8,26.3 12.4,39.3 2.6,13.2 3.9,25.8 3.9,37.9 z m -28.2,14.3 c 0,-21.7 -2.2,-41.8 -6.5,-60.4 -4.3,-18.6 -11,-34 -20.1,-46.1 -9.1,-12.2 -19.7,-18.3 -31.9,-18.3 -15.5,0 -27.7,10.2 -36.7,30.5 -9,20.4 -13.4,47.6 -13.4,81.7 0,15.3 1.1,30 3.3,44.1 2.2,14.2 5.5,27.3 10,39.5 4.4,12.2 10.5,21.9 18.3,29.2 7.7,7.3 16.6,11 26.6,11 15.3,0 27.5,-10.3 36.7,-30.9 9.1,-20.5 13.7,-47.3 13.7,-80.3 z"
   id="path7"
   style="fill:#ffffff" />
	<path
   class="st1"
   d="m 1316.7,317 c 0,39.8 -7.6,72.7 -22.7,98.7 -15.2,26 -36,39 -62.6,39 -16.8,0 -31.4,-6.2 -43.8,-18.6 -12.4,-12.4 -21.5,-27.7 -27.2,-45.8 -5.8,-18.1 -8.6,-37.5 -8.6,-58.1 0,-41.2 7.5,-74.4 22.6,-99.7 15,-25.3 35.8,-38 62.4,-38 14.6,0 27.4,4.3 38.5,12.8 11.1,8.5 19.4,19.4 25.1,32.5 5.6,13.2 9.8,26.3 12.4,39.3 2.5,13.2 3.9,25.8 3.9,37.9 z m -28.2,14.3 c 0,-21.7 -2.2,-41.8 -6.5,-60.4 -4.3,-18.6 -11,-34 -20.1,-46.1 -9.1,-12.2 -19.7,-18.3 -31.9,-18.3 -15.5,0 -27.7,10.2 -36.7,30.5 -9,20.4 -13.4,47.6 -13.4,81.7 0,15.3 1.1,30 3.3,44.1 2.2,14.2 5.5,27.3 10,39.5 4.4,12.2 10.5,21.9 18.3,29.2 7.7,7.3 16.6,11 26.6,11 15.3,0 27.5,-10.3 36.7,-30.9 9.1,-20.5 13.7,-47.3 13.7,-80.3 z"
   id="path9"
   style="fill:#ffffff" />
	<path
   class="st1"
   d="m 1407.6,353.9 v -58.4 c 0,-40.7 -0.2,-64.6 -0.7,-71.7 -0.7,-10.8 -4.4,-17 -11.3,-18.6 -3.3,-0.9 -6.8,-1.3 -10.3,-1.3 -1.8,0 -2.7,-0.7 -2.7,-2 0,-1.8 1.8,-2.7 5.3,-2.7 3.3,0 7.6,0.1 12.9,0.2 5.3,0.1 10,0.3 14.1,0.5 4.1,0.2 6.2,0.3 6.5,0.3 0.2,0 2.4,-0.1 6.5,-0.3 4.1,-0.2 8.7,-0.4 13.9,-0.5 5.2,-0.1 9.2,-0.2 12.1,-0.2 3.5,0 5.3,0.9 5.3,2.7 0,1.3 -0.9,2 -2.7,2 -1.6,0 -4.3,0.3 -8.3,1 -4.4,0.9 -7.5,2.8 -9.1,5.6 -1.7,2.9 -2.7,7.3 -3.2,13.3 -0.4,7.1 -0.7,31 -0.7,71.7 v 58.4 c 0,38.7 0.5,62.7 1.7,72 0.7,5.5 1.8,9.8 3.5,12.8 1.7,3 4.8,4.8 9.5,5.5 6.2,0.9 10.7,1.3 13.6,1.3 2.7,0 4,0.7 4,2 0,1.8 -1.7,2.7 -5,2.7 -5.3,0 -11.3,-0.1 -17.9,-0.2 -6.6,-0.1 -12.1,-0.3 -16.4,-0.5 -4.3,-0.2 -6.6,-0.3 -6.8,-0.3 -0.2,0 -2.4,0.1 -6.5,0.2 -4.1,0.1 -8.7,0.3 -13.9,0.5 -5.2,0.2 -9.2,0.3 -12.1,0.3 -3.5,0 -5.3,-0.9 -5.3,-2.7 0,-1.3 1.2,-2 3.7,-2 2.9,0 5.8,-0.3 8.6,-1 5.1,-1.1 8.4,-7.3 10,-18.6 1.2,-9.3 1.7,-33.3 1.7,-72 z"
   id="path11"
   style="fill:#ffffff" />
	<path
   class="st1"
   d="m 1553.7,401.3 v -49.1 c 0,-33.4 0.1,-58.6 0.2,-75.5 0.1,-16.9 0.2,-25.9 0.2,-26.9 0,-1 0,-13.9 0,-38.7 0,-11.1 1.2,-16.6 3.7,-16.6 0.9,0 1.9,0.6 3.2,1.7 1.2,1.1 2.8,2.8 4.8,5 2,2.2 3.2,3.5 3.7,4 8.2,9.3 43.4,47.2 105.6,113.9 11.5,12.4 26.8,29.1 46,50.1 19.1,21 30.4,33.2 33.7,36.5 l -3.7,-168.6 c -0.2,-11.1 -1.2,-18.8 -2.8,-23.1 -1.7,-4.3 -5,-7.1 -10.1,-8.5 -4.9,-1.1 -9.6,-1.7 -14.3,-1.7 -3.1,0 -4.6,-0.8 -4.6,-2.3 0,-1.5 2.2,-2.3 6.6,-2.3 6,0 13.2,0.2 21.6,0.5 8.4,0.3 12.7,0.5 12.9,0.5 0.4,0 3.9,-0.2 10.5,-0.5 6.5,-0.3 12.4,-0.5 17.8,-0.5 4,0 6,0.8 6,2.3 0,1.1 -1.2,1.9 -3.7,2.3 -1.8,0.2 -4.6,0.7 -8.6,1.3 -4.6,1.1 -7.7,3.5 -9.3,7.3 -1.6,3.8 -2.3,11.3 -2.3,22.6 l -0.7,193.8 c 0,5.5 -0.1,9.8 -0.2,12.9 -0.1,3.1 -0.3,5.4 -0.5,7 -0.2,1.5 -0.5,2.5 -0.8,3 -0.3,0.4 -0.8,0.7 -1.5,0.7 -2,0 -10.1,-7.1 -24.2,-21.2 -1.3,-1.3 -6.5,-6.6 -15.6,-15.8 -9.1,-9.2 -20.5,-21 -34.4,-35.3 -13.8,-14.4 -26.1,-27.3 -36.7,-38.8 -31,-33.4 -59.9,-65.2 -86.6,-95.3 l 4.3,159 c 0.2,13.5 1.3,23 3.2,28.4 1.9,5.4 5.1,8.8 9.8,10.1 5.1,1.3 10.6,2 16.6,2 1.8,0 2.7,0.7 2.7,2 0,1.8 -2,2.7 -6,2.7 -5.5,0 -11,-0.1 -16.4,-0.2 -5.4,-0.1 -9.8,-0.3 -13.1,-0.5 -3.3,-0.2 -5.2,-0.3 -5.6,-0.3 l -11.3,0.7 c -7.7,0.2 -14.6,0.3 -20.6,0.3 -3.5,0 -5.3,-0.9 -5.3,-2.7 0,-1.3 0.9,-2 2.7,-2 5.1,0 9.6,-0.7 13.6,-2 4,-1.1 6.6,-4.5 8,-10.3 0.8,-5.7 1.5,-16.4 1.5,-31.9 z"
   id="path13"
   style="fill:#ffffff" />
	<path
   class="st1"
   d="m 1862.7,451.8 c -5.3,0 -9.5,-1.8 -12.6,-5.5 -3.1,-3.7 -4.6,-7.7 -4.6,-12.1 0,-4.4 1.5,-8.5 4.6,-12.1 3.1,-3.7 7.4,-5.5 12.9,-5.5 4.9,0 8.9,1.6 12.1,4.8 3.2,3.2 4.8,7.4 4.8,12.4 0,5.1 -1.7,9.4 -5,12.8 -3.2,3.5 -7.3,5.2 -12.2,5.2 z"
   id="path15"
   style="fill:#ffffff" />
	<path
   class="st1"
   d="m 1986.8,454.8 c -17.5,0 -32.3,-3 -44.5,-9 -2.2,-1.1 -3.6,-2.3 -4.1,-3.7 -0.6,-1.3 -0.8,-4.3 -0.8,-9 0,-5.8 0.5,-17.5 1.7,-35.2 0.2,-3.5 1.1,-5.3 2.7,-5.3 1.5,0 2.3,1.2 2.3,3.7 0,5.1 0.3,9.2 1,12.3 2.4,11.5 8.2,20 17.3,25.6 9.1,5.5 19.7,8.3 31.9,8.3 15,0 26.7,-4.4 35,-13.3 8.3,-8.8 12.4,-19.1 12.4,-30.9 0,-11.3 -2.7,-21 -8.1,-29.2 -5.4,-8.2 -15.4,-18.4 -30,-30.5 l -14.9,-12.3 c -16.6,-13.5 -27.9,-25.8 -34,-36.8 -6.1,-11.1 -9.1,-22.8 -9.1,-35.2 0,-17.9 6.2,-32.4 18.6,-43.3 12.4,-11 29.1,-16.4 50.1,-16.4 11.3,0 21.6,1.1 30.9,3.3 5.3,1.1 9.2,1.7 11.6,1.7 2.2,0 3.3,0.8 3.3,2.3 l -0.3,4.3 c -0.2,2.9 -0.4,7.1 -0.7,12.6 -0.2,5.5 -0.3,11.6 -0.3,18.3 0,5.1 -0.8,7.6 -2.3,7.6 -1.3,0 -2.2,-1.4 -2.7,-4.3 -0.7,-6.9 -2.1,-12.4 -4.3,-16.6 -6.4,-11.7 -20.2,-17.6 -41.5,-17.6 -11.7,0 -21.5,3.5 -29.2,10.5 -7.7,7 -11.6,16.3 -11.6,28 0,9.5 2.8,18.1 8.3,25.7 5.5,7.6 16.3,17.6 32.2,30 l 9.3,7.3 c 18.8,14.8 31.6,28 38.3,39.5 6.7,11.5 10.1,24.3 10.1,38.5 0,8.9 -2.2,18.4 -6.5,28.7 -4.3,10.3 -11.6,19.1 -21.7,26.4 -13.5,9.3 -30.2,14 -50.4,14 z"
   id="path17"
   style="fill:#ffffff" />
	<path
   class="st1"
   d="m 2158.1,353.9 v -58.4 c 0,-40.7 -0.2,-64.6 -0.7,-71.7 -0.4,-6 -1.6,-10.3 -3.5,-13.1 -1.9,-2.8 -5.5,-4.7 -10.8,-5.8 -2.7,-0.7 -6.4,-1 -11.3,-1 -1.8,0 -2.7,-0.7 -2.7,-2 0,-1.8 1.8,-2.7 5.3,-2.7 4.4,0 9.5,0.1 15.3,0.2 5.8,0.1 10.8,0.3 15.1,0.5 4.3,0.2 6.7,0.3 7.1,0.3 1.8,0 7.7,-0.2 17.9,-0.5 10.2,-0.3 18.1,-0.5 23.9,-0.5 27.7,0 48.2,6.3 61.7,18.9 11.1,10.6 16.6,25.1 16.6,43.5 0,21.7 -7.7,39.6 -23.2,53.8 -15.5,14.2 -35,21.2 -58.4,21.2 -3.5,0 -5.9,-0.1 -7,-0.3 -2.4,0 -3.7,-0.8 -3.7,-2.3 0,-2 3,-3 9,-3 16.4,0 30,-5.2 41,-15.6 11,-10.4 16.4,-24.1 16.4,-41.2 0,-19.7 -6.2,-35.8 -18.6,-48.5 -10.8,-11.1 -26,-16.6 -45.5,-16.6 -6.4,0 -11.2,0.7 -14.3,2 -1.8,0.7 -2.7,2.8 -2.7,6.3 v 136.4 c 0,38.7 0.5,62.7 1.7,72 0.7,5.5 1.8,9.8 3.5,12.8 1.7,3 4.8,4.8 9.5,5.5 6.2,0.9 11.2,1.3 14.9,1.3 1.8,0 2.7,0.7 2.7,2 0,1.8 -1.8,2.7 -5.3,2.7 -5.3,0 -11.2,-0.1 -17.8,-0.2 -6.5,-0.1 -11.9,-0.3 -16.3,-0.5 -4.3,-0.2 -6.6,-0.3 -6.8,-0.3 h -6 c -4,0.2 -8.6,0.4 -13.8,0.7 -5.2,0.2 -9.2,0.3 -12.1,0.3 -3.5,0 -5.3,-0.9 -5.3,-2.7 0,-1.3 0.9,-2 2.7,-2 2.7,0 6,-0.4 10,-1.3 4.9,-0.9 8.1,-7 9.6,-18.3 1.4,-9.2 1.9,-33.2 1.9,-71.9 z"
   id="path19"
   style="fill:#ffffff" />
	<path
   class="st1"
   d="m 2448.2,352.2 h -71.4 c -1.6,0 -2.7,0.9 -3.3,2.7 l -19.9,58.8 c -3.1,8.6 -4.6,16 -4.6,22.2 0,3.1 1.2,5.5 3.7,7.1 2.4,1.7 5.2,2.5 8.3,2.5 h 3 c 2.9,0 4.3,0.7 4.3,2 0,1.8 -2,2.7 -6,2.7 -3.1,0 -7.8,-0.2 -14.1,-0.5 -6.3,-0.3 -9.9,-0.5 -10.8,-0.5 -0.2,0 -5,0.2 -14.3,0.5 -9.3,0.3 -17,0.5 -23.2,0.5 -4.2,0 -6.3,-0.9 -6.3,-2.7 0,-1.3 1.6,-2 4.6,-2 1.8,0 4.4,-0.2 8,-0.7 7.1,-0.9 12.6,-3.9 16.6,-9.1 4,-5.2 7.7,-12.6 11.3,-22.1 l 75.3,-206.1 c 3.1,-8.6 5.5,-12.9 7.3,-12.9 1.8,0 4.2,4 7.3,12 0.9,2.2 6.5,16.8 16.8,43.8 10.3,27 21.5,56.1 33.5,87.3 12.1,31.2 21.1,54.2 27.1,69 8.8,21.7 18.4,34 28.5,36.8 4,1.3 8.3,2 12.9,2 2.4,0 3.7,0.7 3.7,2 0,1.8 -2.2,2.7 -6.6,2.7 -19.5,0 -36.8,-0.2 -52.1,-0.7 -6.6,-0.4 -10,-1.2 -10,-2.3 0,-1.1 0.8,-1.9 2.3,-2.3 3.1,-1.1 3.8,-4.1 2,-9 l -30.9,-81.7 c -0.7,-1.3 -1.7,-2 -3,-2 z m -67.7,-11.9 h 63.4 c 1.3,0 1.8,-0.8 1.3,-2.3 l -31.5,-89.6 c -1.6,-5.1 -3.2,-5.1 -5,0 l -29.2,89.6 c -0.7,1.5 -0.3,2.3 1,2.3 z"
   id="path21"
   style="fill:#ffffff" />
	<path
   class="st1"
   d="m 2716.7,454.8 c -46.5,0 -83,-11.9 -109.5,-35.8 -26.8,-24.1 -40.2,-56.9 -40.2,-98.3 0,-13.9 2.9,-29.2 8.6,-45.8 5.8,-16.6 15.3,-31.5 28.5,-44.8 23.7,-23.7 57.4,-35.5 101.2,-35.5 17.7,0 33.7,1.3 48.1,4 3.1,0.7 14.8,2.3 35.2,5 2,0.2 3,1.4 3,3.7 0,0.7 -0.1,1.7 -0.3,3.2 -0.2,1.4 -0.4,3.5 -0.7,6.3 -0.2,2.8 -0.4,5.8 -0.7,9.1 -0.2,4 -0.4,10.3 -0.7,19.1 -0.2,8.7 -0.3,13.8 -0.3,15.1 -0.2,4.6 -1.2,7 -3,7 -1.8,0 -2.7,-2.3 -2.7,-7 0,-14.6 -4.6,-25.9 -13.9,-33.9 -6.2,-5.3 -15.3,-9.8 -27.4,-13.4 -12.1,-3.7 -25.1,-5.5 -39,-5.5 -34.3,0 -59.7,8.1 -76.3,24.2 -11.3,10.8 -19.1,23.3 -23.4,37.3 -4.3,14.1 -6.5,30.5 -6.5,49.3 0,32.8 11.3,61.2 34,85.3 22.7,24.1 51.3,36.2 85.8,36.2 27.7,0 46.9,-5.5 57.8,-16.6 6.2,-6.4 10.3,-15.7 12.3,-27.9 0.7,-3.3 1.8,-5 3.3,-5 1.5,0 2.3,1.7 2.3,5 0,1.8 -0.8,8.1 -2.5,18.9 -1.7,10.8 -3.3,18.7 -4.8,23.6 -0.9,3.1 -1.8,5.1 -2.7,6.1 -0.9,1 -2.9,2.2 -6,3.5 -12.3,5 -32.2,7.6 -59.5,7.6 z"
   id="path23"
   style="fill:#ffffff" />
	<path
   class="st1"
   d="m 2876.4,353.9 v -58.4 c 0,-40.7 -0.2,-64.6 -0.7,-71.7 -0.4,-6 -1.6,-10.3 -3.5,-13.1 -1.9,-2.8 -5.5,-4.7 -10.8,-5.8 -0.7,-0.2 -1.6,-0.4 -2.7,-0.5 -1.1,-0.1 -2.4,-0.2 -3.8,-0.3 -1.4,-0.1 -2.5,-0.2 -3.2,-0.2 -2.9,-0.4 -4.3,-1.1 -4.3,-2 0,-1.8 1.8,-2.7 5.3,-2.7 11.1,0 23.6,0.3 37.5,1 45.6,0 70.9,-0.1 76,-0.3 8.2,-0.4 13.3,-1.1 15.3,-2 1.8,-0.9 3,-1.3 3.7,-1.3 0.9,0 1.3,1 1.3,3 0,0.4 -0.4,2.3 -1.2,5.5 -0.8,3.2 -1.3,6.6 -1.5,10.1 l -1.3,19.9 c -0.4,3.8 -1.3,5.6 -2.7,5.6 -1.8,0 -2.7,-1.4 -2.7,-4.3 0,-4.4 -0.6,-8.1 -1.7,-11 -2.2,-6.9 -10.2,-11 -23.9,-12.3 -5.8,-0.7 -20.9,-1 -45.5,-1 -1.3,0 -2,1.1 -2,3.3 V 307 c 0,2.2 0.7,3.3 2,3.3 30.1,0 47.7,-0.2 52.8,-0.7 8.4,-0.7 13.9,-2.5 16.6,-5.6 1.8,-2.2 3.1,-3.3 4,-3.3 1.1,0 1.7,0.9 1.7,2.7 0,0.4 -0.2,1.4 -0.5,3 -0.3,1.6 -0.7,3.8 -1.2,6.6 -0.4,2.9 -0.8,5.9 -1,9 -0.4,4 -0.8,8.7 -1,14.1 -0.2,5.4 -0.3,8.2 -0.3,8.5 -0.4,3.3 -1.2,5 -2.3,5 -1.6,0 -2.3,-1.8 -2.3,-5.3 0,-3.5 -0.4,-6.6 -1.3,-9.3 -1.6,-6.2 -7.3,-9.8 -17.3,-11 -10,-1.1 -25.8,-1.7 -47.5,-1.7 -1.6,0 -2.3,0.8 -2.3,2.3 v 29.2 c 0,2 0,7.7 0,17.1 0,9.4 0,17.9 0,25.4 0,7.5 0,12.3 0,14.3 0.4,7.3 1.4,12.8 2.8,16.4 1.4,3.7 4.1,6.3 8.1,7.8 4.9,2 14,3 27.5,3 13.3,0 23.2,-1 29.9,-3 5.1,-1.5 8.8,-4.1 11.3,-7.8 2.4,-3.7 4.3,-9.2 5.6,-16.8 0.7,-3.3 1.7,-5 3,-5 1.3,0 2,1.7 2,5 0,1.6 -0.6,6.5 -1.7,14.9 -1.1,8.4 -2,14.2 -2.7,17.3 -1.1,4.2 -2.7,6.7 -4.6,7.5 -2,0.8 -6.4,1.2 -13.3,1.2 -6.4,0 -22.6,-0.3 -48.5,-1 -26.6,-0.7 -40.4,-1 -41.5,-1 -2.2,0 -6.1,0.2 -11.6,0.7 -5.5,0.4 -9.8,0.5 -12.9,0.3 -3.5,0 -5.3,-0.9 -5.3,-2.7 0,-0.9 1.2,-1.5 3.7,-2 4.2,-0.4 6.7,-0.8 7.6,-1 4,-0.9 6.9,-3.4 8.8,-7.6 1.9,-4.2 2.9,-12.1 3.2,-23.6 0.7,-17.2 0.9,-37 0.9,-59.3 z"
   id="path25"
   style="fill:#ffffff" />
</g>
</svg>
